# xmcd
# Copyright (C) 1995-1998 Ti Kan
#
# Track frame offsets:
#       150
#       9989
#       20659
#       31805
#       42756
#
# Disc length: 807 seconds
#
# Revision: 0
# Processed by: cddbd v1.5.1PL2 Copyright (c) Steve Scherf et al.
# Submitted via: CD-Transfer v1.0
#
DISCID=2d032505
DTITLE=H`echtholz - 
DYEAR=1900
DGENRE=
TTITLE0=Musikantenfreud
TTITLE1=Mia Kommen Um Die Welt
TTITLE2=Wir Sind Vom Zillertal
TTITLE3=Mario Boarischer
TTITLE4=Nur U1
EXTD=
EXTT0=
EXTT1=
EXTT2=
EXTT3=
EXTT4=
PLAYORDER=
